<svg width="12" height="12" viewBox="0 0 12 12" fill="none" xmlns="http://www.w3.org/2000/svg">
<path d="M6.93177 7.35374C6.61285 7.74626 6.45339 7.94252 6.2614 8.01378C6.09304 8.07627 5.90784 8.07627 5.73947 8.01378C5.54749 7.94252 5.38802 7.74626 5.0691 7.35374L4.34027 6.45671C3.832 5.83115 3.57787 5.51837 3.57619 5.25479C3.57472 5.02559 3.67815 4.8083 3.85695 4.66491C4.06258 4.5 4.46559 4.5 5.2716 4.5H6.72927C7.53528 4.5 7.93829 4.5 8.14392 4.66491C8.32273 4.8083 8.42615 5.02559 8.42469 5.25479C8.423 5.51837 8.16887 5.83115 7.6606 6.45671L6.93177 7.35374Z" fill="#171719"/>
</svg>
