<svg width="24" height="24" viewBox="0 0 24 24" fill="none" xmlns="http://www.w3.org/2000/svg">
<path fill-rule="evenodd" clip-rule="evenodd" d="M12.3616 2.27638C12.1248 2.21309 11.8755 2.21309 11.6387 2.27638C11.358 2.35141 11.1252 2.5332 11.0026 2.62896L10.9675 2.65616L4.13433 7.88144C3.74752 8.17667 3.42134 8.42563 3.17859 8.74993C2.96529 9.03488 2.80627 9.35667 2.70948 9.6992C2.59933 10.089 2.59971 10.4994 2.60015 10.986L2.60021 17.3349C2.6002 17.8647 2.60018 18.3159 2.63045 18.6864C2.66224 19.0755 2.73188 19.4541 2.91629 19.816C3.19432 20.3617 3.63796 20.8054 4.18363 21.0834C4.54556 21.2678 4.92416 21.3374 5.31332 21.3692C5.68373 21.3995 6.13489 21.3995 6.66473 21.3995H11.9899C11.9934 21.3995 11.9969 21.3995 12.0005 21.3995C12.004 21.3995 12.0075 21.3995 12.0111 21.3995H17.3356C17.8654 21.3995 18.3166 21.3995 18.687 21.3692C19.0762 21.3374 19.4548 21.2678 19.8167 21.0834C20.3624 20.8054 20.806 20.3617 21.0841 19.816C21.2685 19.4541 21.3381 19.0755 21.3699 18.6864C21.4002 18.3159 21.4002 17.8648 21.4001 17.3349L21.4002 10.986C21.4006 10.4994 21.401 10.089 21.2909 9.6992C21.1941 9.35667 21.0351 9.03488 20.8218 8.74993C20.579 8.42563 20.2528 8.17667 19.866 7.88144L13.0328 2.65616L12.9978 2.62896C12.8752 2.53321 12.6424 2.35141 12.3616 2.27638ZM12.9005 19.5993H17.7002C18.5147 19.5993 18.7086 19.5882 18.8401 19.5455C19.175 19.4367 19.4375 19.1741 19.5463 18.8392C19.5891 18.7077 19.6002 18.5139 19.6002 17.6993V10.8829C19.6002 10.4627 19.5966 10.3672 19.5817 10.2868C19.5446 10.087 19.4528 9.90134 19.3166 9.75048C19.2618 9.68977 19.1881 9.62894 18.8543 9.37367L12.0002 4.13231L5.14606 9.37366C4.81224 9.62894 4.73855 9.68977 4.68373 9.75048C4.54754 9.90134 4.4558 10.087 4.4187 10.2868C4.40377 10.3672 4.40021 10.4627 4.40021 10.8829V17.6993C4.40021 18.5139 4.41132 18.7077 4.45405 18.8392C4.56286 19.1741 4.82541 19.4367 5.16029 19.5455C5.29181 19.5882 5.48565 19.5993 6.30021 19.5993H11.1005V13.9995C11.1005 13.5025 11.5034 13.0995 12.0005 13.0995C12.4975 13.0995 12.9005 13.5025 12.9005 13.9995V19.5993Z" fill="currentColor"/>
</svg>
