<svg width="23" height="23" viewBox="0 0 23 23" fill="none" xmlns="http://www.w3.org/2000/svg">
<path d="M5.35221 9.17519L14.1545 6.39969C14.4488 6.30688 14.7081 6.2251 14.9199 6.17902C15.1308 6.13316 15.4036 6.0953 15.676 6.19443C16.0278 6.32249 16.305 6.59965 16.433 6.95149C16.5321 7.22387 16.4943 7.49669 16.4484 7.70749C16.4023 7.9193 16.3206 8.17862 16.2278 8.47289L13.4523 17.2752C13.3414 17.627 13.2461 17.9292 13.151 18.1576C13.0603 18.3755 12.9209 18.6568 12.6503 18.8286C12.3115 19.0436 11.8908 19.0854 11.5163 18.9411C11.2172 18.8259 11.0252 18.5775 10.8934 18.3817C10.7553 18.1764 10.6025 17.8988 10.4246 17.5758L8.818 14.658L12.2096 11.2664C12.4439 11.0321 12.4439 10.6522 12.2096 10.4178C11.9753 10.1835 11.5954 10.1835 11.3611 10.4178L7.96948 13.8094L5.0517 12.2028C4.72861 12.025 4.45105 11.8721 4.24574 11.734C4.04998 11.6023 3.80151 11.4103 3.68631 11.1111C3.54208 10.7367 3.58384 10.316 3.79887 9.97717C3.97062 9.70654 4.25198 9.56711 4.46982 9.47644C4.69828 9.38135 5.00047 9.28608 5.35221 9.17519Z" fill="black"/>
</svg>
