<svg width="14" height="14" viewBox="0 0 14 14" fill="none" xmlns="http://www.w3.org/2000/svg">
<path fill-rule="evenodd" clip-rule="evenodd" d="M3.42118 1.22461H7.07671C7.30507 1.2246 7.50722 1.22459 7.67472 1.23828C7.85309 1.25285 8.03792 1.28552 8.21785 1.3772C8.48128 1.51143 8.69545 1.7256 8.82967 1.98903C8.92135 2.16896 8.95402 2.35379 8.9686 2.53216C8.98228 2.69965 8.98227 2.90175 8.98226 3.13011L8.98226 5.89128L10.5767 5.89128C10.8051 5.89127 11.0072 5.89126 11.1747 5.90494C11.3531 5.91952 11.5379 5.95219 11.7178 6.04387C11.9813 6.17809 12.1954 6.39227 12.3297 6.65569C12.4213 6.83562 12.454 7.02045 12.4686 7.19883C12.4823 7.36633 12.4823 7.56845 12.4822 7.79683V12.7746H9.5656V10.3538C9.5656 10.0638 9.33055 9.82878 9.0406 9.82878C8.75065 9.82878 8.5156 10.0638 8.5156 10.3538V12.7746H8.46961L8.45726 12.7748L8.44491 12.7746H1.51563L1.51563 3.13017C1.51562 2.90181 1.51561 2.69966 1.52929 2.53216C1.54387 2.35379 1.57654 2.16896 1.66822 1.98903C1.80244 1.7256 2.01661 1.51143 2.28004 1.3772C2.45997 1.28552 2.6448 1.25285 2.82317 1.23828C2.99067 1.22459 3.19282 1.2246 3.42118 1.22461ZM3.55727 6.41634C3.55727 6.12639 3.79232 5.89134 4.08227 5.89134H6.41559C6.70554 5.89134 6.94059 6.12639 6.94059 6.41634C6.94059 6.70629 6.70554 6.94134 6.41559 6.94134H4.08227C3.79232 6.94134 3.55727 6.70629 3.55727 6.41634ZM3.55727 4.083C3.55727 3.79305 3.79232 3.558 4.08227 3.558H6.41559C6.70554 3.558 6.94059 3.79305 6.94059 4.083C6.94059 4.37295 6.70554 4.608 6.41559 4.608H4.08227C3.79232 4.608 3.55727 4.37295 3.55727 4.083Z" fill="currentColor"/>
</svg>
